<?xml version="1.0" standalone="no"?>
<!DOCTYPE svg PUBLIC "-//W3C//DTD SVG 20010904//EN"
 "http://www.w3.org/TR/2001/REC-SVG-20010904/DTD/svg10.dtd">
<svg version="1.0" xmlns="http://www.w3.org/2000/svg"
 width="500.000000pt" height="500.000000pt" viewBox="0 0 500.000000 500.000000"
 preserveAspectRatio="xMidYMid meet">
<metadata>
Created by potrace 1.11, written by Peter Selinger 2001-2013
</metadata>
<g transform="translate(0.000000,500.000000) scale(0.100000,-0.100000)"
fill="#000000" stroke="none">
<path d="M2383 4795 c-60 -17 -100 -36 -216 -104 -45 -27 -98 -58 -117 -68
-19 -11 -62 -35 -95 -54 -33 -18 -61 -37 -63 -41 -2 -4 -9 -8 -16 -8 -7 0 -39
-17 -72 -38 -32 -20 -70 -43 -84 -50 -14 -6 -32 -16 -40 -22 -30 -20 -433
-250 -438 -250 -3 0 -13 -6 -21 -14 -9 -7 -43 -28 -76 -46 -130 -71 -492 -283
-525 -308 -88 -64 -153 -169 -177 -286 -11 -54 -9 -877 2 -891 9 -11 244 -115
270 -119 6 -1 15 -4 20 -8 6 -3 89 -38 185 -77 96 -39 195 -80 220 -91 39 -17
137 -57 343 -140 l57 -24 68 32 c61 29 177 65 199 61 4 -1 25 -1 45 0 36 1 40
5 112 112 42 61 76 115 76 119 0 5 4 10 8 12 5 2 87 120 184 263 l175 260 7
75 c15 180 81 327 211 469 86 93 246 185 381 217 100 24 267 22 368 -5 69 -18
232 -91 246 -109 3 -4 21 -19 41 -34 177 -132 291 -368 291 -603 0 -402 -303
-733 -705 -770 l-72 -7 -200 -135 c-299 -201 -547 -371 -555 -380 -5 -4 -11
-37 -14 -73 -8 -89 -14 -116 -38 -174 -32 -76 -91 -158 -150 -210 -54 -48
-176 -114 -225 -122 -16 -2 -39 -7 -53 -10 -53 -12 -185 -4 -246 16 -163 53
-288 167 -352 320 -17 41 -33 82 -35 91 -3 9 -34 26 -69 39 -34 13 -67 26 -73
30 -9 6 -124 53 -135 56 -3 0 -16 6 -30 12 -87 37 -472 196 -508 209 -24 8
-46 12 -50 8 -13 -13 -8 -378 6 -445 33 -151 114 -249 287 -345 40 -22 235
-134 305 -175 36 -21 328 -190 360 -208 19 -11 102 -58 183 -106 82 -47 167
-97 190 -110 23 -13 155 -89 293 -168 277 -159 331 -181 447 -177 108 3 159
23 359 140 68 40 137 79 153 89 61 35 351 202 365 211 21 12 566 326 613 353
21 11 46 26 55 31 9 6 60 34 112 64 52 30 97 57 100 60 3 3 27 17 53 31 27 14
72 49 100 77 75 75 105 131 134 248 3 11 6 454 7 985 1 755 -1 979 -11 1030
-31 155 -114 258 -283 352 -25 14 -138 79 -251 145 -114 66 -213 123 -220 127
-8 3 -30 16 -49 27 -32 20 -390 227 -463 268 -18 10 -151 87 -297 172 -146 84
-292 164 -325 178 -75 31 -204 38 -282 16z"/>
<path d="M3053 3535 c-327 -90 -489 -439 -343 -740 158 -325 578 -400 835
-150 98 95 150 202 161 334 23 252 -146 490 -392 555 -68 18 -198 18 -261 1z
m248 -135 c112 -35 214 -132 254 -243 27 -73 26 -203 -3 -277 -59 -150 -210
-252 -374 -251 -80 0 -146 20 -214 65 -208 139 -239 432 -62 608 107 107 255
143 399 98z"/>
<path d="M1748 2128 c-21 -6 -38 -13 -38 -16 0 -4 44 -24 98 -46 238 -95 286
-127 339 -229 23 -45 27 -64 28 -142 0 -80 -3 -96 -29 -148 -57 -112 -164
-179 -290 -180 -70 -1 -124 17 -395 130 -27 12 32 -76 84 -126 155 -148 392
-166 565 -42 291 207 233 650 -101 782 -61 24 -201 33 -261 17z"/>
</g>
</svg>
